<svg width="32" height="44" viewBox="0 0 32 44" fill="none" xmlns="http://www.w3.org/2000/svg">
<path d="M28.5 43.875H3.5C2.67145 43.8742 1.87708 43.5447 1.29121 42.9588C0.705333 42.3729 0.375827 41.5785 0.375 40.75V3.25C0.375827 2.42145 0.705333 1.62708 1.29121 1.0412C1.87708 0.455333 2.67145 0.125827 3.5 0.125H28.5C29.3285 0.125827 30.1229 0.455333 30.7088 1.0412C31.2947 1.62708 31.6242 2.42145 31.625 3.25V29.2156L23.8125 25.3094L16 29.2156V3.25H3.5V40.75H28.5V34.5H31.625V40.75C31.6238 41.5784 31.2941 42.3726 30.7083 42.9583C30.1226 43.5441 29.3284 43.8738 28.5 43.875ZM23.8125 21.8156L28.5 24.1594V3.25H19.125V24.1594L23.8125 21.8156Z" fill="white"/>
</svg>
