<svg width="42" height="40" viewBox="0 0 42 40" fill="none" xmlns="http://www.w3.org/2000/svg">
<path d="M37.2879 30.2329H34.0044C33.7802 30.2329 33.57 30.3286 33.4299 30.4974C33.1029 30.885 32.7526 31.259 32.3837 31.6147C30.8745 33.0897 29.087 34.2652 27.1198 35.0762C25.0818 35.9167 22.8913 36.3478 20.679 36.344C18.4417 36.344 16.2746 35.9153 14.2382 35.0762C12.271 34.2652 10.4834 33.0897 8.97432 31.6147C7.4625 30.1447 6.25701 28.4023 5.42462 26.4841C4.56055 24.4957 4.12618 22.3841 4.12618 20.1996C4.12618 18.0151 4.56522 15.9036 5.42462 13.9152C6.256 11.9952 7.45169 10.2667 8.97432 8.78456C10.497 7.30238 12.2671 6.13488 14.2382 5.3231C16.2746 4.48396 18.4417 4.05526 20.679 4.05526C22.9162 4.05526 25.0834 4.47939 27.1198 5.3231C29.0908 6.13488 30.861 7.30238 32.3837 8.78456C32.7526 9.14484 33.0983 9.51881 33.4299 9.9019C33.57 10.0706 33.7849 10.1664 34.0044 10.1664H37.2879C37.5821 10.1664 37.7643 9.84717 37.6008 9.60546C34.0184 4.16928 27.7504 0.570999 20.6276 0.589241C9.43672 0.616605 0.464383 9.48689 0.576478 20.4003C0.688574 31.1404 9.6469 39.81 20.679 39.81C27.7831 39.81 34.0231 36.2163 37.6008 30.7938C37.7596 30.5521 37.5821 30.2329 37.2879 30.2329ZM41.4401 19.9123L34.8124 14.8045C34.5649 14.6129 34.2052 14.7863 34.2052 15.0918V18.5578H19.5394C19.3338 18.5578 19.1657 18.722 19.1657 18.9227V21.4766C19.1657 21.6772 19.3338 21.8414 19.5394 21.8414H34.2052V25.3075C34.2052 25.613 34.5695 25.7863 34.8124 25.5948L41.4401 20.4869C41.4847 20.4528 41.5209 20.4092 41.5457 20.3594C41.5705 20.3097 41.5834 20.255 41.5834 20.1996C41.5834 20.1443 41.5705 20.0896 41.5457 20.0398C41.5209 19.99 41.4847 19.9464 41.4401 19.9123Z" fill="white"/>
</svg>
