<svg width="303" height="79" viewBox="0 0 303 79" fill="none" xmlns="http://www.w3.org/2000/svg">
<rect width="303" height="79" rx="39.5" fill="#8AC5D5"/>
<path d="M92.92 53.28C91.08 53.28 89.4267 52.96 87.96 52.32C86.52 51.6533 85.3867 50.7467 84.56 49.6C83.7333 48.4267 83.3067 47.08 83.28 45.56H87.16C87.2933 46.8667 87.8267 47.9733 88.76 48.88C89.72 49.76 91.1067 50.2 92.92 50.2C94.6533 50.2 96.0133 49.7733 97 48.92C98.0133 48.04 98.52 46.92 98.52 45.56C98.52 44.4933 98.2267 43.6267 97.64 42.96C97.0533 42.2933 96.32 41.7867 95.44 41.44C94.56 41.0933 93.3733 40.72 91.88 40.32C90.04 39.84 88.56 39.36 87.44 38.88C86.3467 38.4 85.4 37.6533 84.6 36.64C83.8267 35.6 83.44 34.2133 83.44 32.48C83.44 30.96 83.8267 29.6133 84.6 28.44C85.3733 27.2667 86.4533 26.36 87.84 25.72C89.2533 25.08 90.8667 24.76 92.68 24.76C95.2933 24.76 97.4267 25.4133 99.08 26.72C100.76 28.0267 101.707 29.76 101.92 31.92H97.92C97.7867 30.8533 97.2267 29.92 96.24 29.12C95.2533 28.2933 93.9467 27.88 92.32 27.88C90.8 27.88 89.56 28.28 88.6 29.08C87.64 29.8533 87.16 30.9467 87.16 32.36C87.16 33.3733 87.44 34.2 88 34.84C88.5867 35.48 89.2933 35.9733 90.12 36.32C90.9733 36.64 92.16 37.0133 93.68 37.44C95.52 37.9467 97 38.4533 98.12 38.96C99.24 39.44 100.2 40.2 101 41.24C101.8 42.2533 102.2 43.64 102.2 45.4C102.2 46.76 101.84 48.04 101.12 49.24C100.4 50.44 99.3333 51.4133 97.92 52.16C96.5067 52.9067 94.84 53.28 92.92 53.28ZM126.997 31.08V53H123.357V49.76C122.663 50.88 121.69 51.76 120.437 52.4C119.21 53.0133 117.85 53.32 116.357 53.32C114.65 53.32 113.117 52.9733 111.757 52.28C110.397 51.56 109.317 50.4933 108.517 49.08C107.743 47.6667 107.357 45.9467 107.357 43.92V31.08H110.957V43.44C110.957 45.6 111.503 47.2667 112.597 48.44C113.69 49.5867 115.183 50.16 117.077 50.16C119.023 50.16 120.557 49.56 121.677 48.36C122.797 47.16 123.357 45.4133 123.357 43.12V31.08H126.997ZM136.783 35.16C137.529 33.8533 138.623 32.7867 140.062 31.96C141.503 31.1333 143.143 30.72 144.983 30.72C146.956 30.72 148.729 31.1867 150.303 32.12C151.876 33.0533 153.116 34.3733 154.023 36.08C154.929 37.76 155.383 39.72 155.383 41.96C155.383 44.1733 154.929 46.1467 154.023 47.88C153.116 49.6133 151.862 50.96 150.262 51.92C148.689 52.88 146.929 53.36 144.983 53.36C143.089 53.36 141.423 52.9467 139.983 52.12C138.569 51.2933 137.503 50.24 136.783 48.96V53H133.143V23.4H136.783V35.16ZM151.663 41.96C151.663 40.3067 151.329 38.8667 150.663 37.64C149.996 36.4133 149.089 35.48 147.943 34.84C146.823 34.2 145.583 33.88 144.223 33.88C142.889 33.88 141.649 34.2133 140.503 34.88C139.383 35.52 138.476 36.4667 137.783 37.72C137.116 38.9467 136.783 40.3733 136.783 42C136.783 43.6533 137.116 45.1067 137.783 46.36C138.476 47.5867 139.383 48.5333 140.503 49.2C141.649 49.84 142.889 50.16 144.223 50.16C145.583 50.16 146.823 49.84 147.943 49.2C149.089 48.5333 149.996 47.5867 150.663 46.36C151.329 45.1067 151.663 43.64 151.663 41.96ZM186.534 30.68C188.24 30.68 189.76 31.04 191.094 31.76C192.427 32.4533 193.48 33.5067 194.254 34.92C195.027 36.3333 195.414 38.0533 195.414 40.08V53H191.814V40.6C191.814 38.4133 191.267 36.7467 190.174 35.6C189.107 34.4267 187.654 33.84 185.814 33.84C183.92 33.84 182.414 34.4533 181.294 35.68C180.174 36.88 179.614 38.6267 179.614 40.92V53H176.014V40.6C176.014 38.4133 175.467 36.7467 174.374 35.6C173.307 34.4267 171.854 33.84 170.014 33.84C168.12 33.84 166.614 34.4533 165.494 35.68C164.374 36.88 163.814 38.6267 163.814 40.92V53H160.174V31.08H163.814V34.24C164.534 33.0933 165.494 32.2133 166.694 31.6C167.92 30.9867 169.267 30.68 170.734 30.68C172.574 30.68 174.2 31.0933 175.614 31.92C177.027 32.7467 178.08 33.96 178.774 35.56C179.387 34.0133 180.4 32.8133 181.814 31.96C183.227 31.1067 184.8 30.68 186.534 30.68ZM203.265 27.52C202.571 27.52 201.985 27.28 201.505 26.8C201.025 26.32 200.785 25.7333 200.785 25.04C200.785 24.3467 201.025 23.76 201.505 23.28C201.985 22.8 202.571 22.56 203.265 22.56C203.931 22.56 204.491 22.8 204.945 23.28C205.425 23.76 205.665 24.3467 205.665 25.04C205.665 25.7333 205.425 26.32 204.945 26.8C204.491 27.28 203.931 27.52 203.265 27.52ZM205.025 31.08V53H201.385V31.08H205.025ZM215.668 34.08V47C215.668 48.0667 215.895 48.8267 216.348 49.28C216.802 49.7067 217.588 49.92 218.708 49.92H221.388V53H218.108C216.082 53 214.562 52.5333 213.548 51.6C212.535 50.6667 212.028 49.1333 212.028 47V34.08H209.188V31.08H212.028V25.56H215.668V31.08H221.388V34.08H215.668Z" fill="#034657"/>
</svg>
