<svg width="35" height="44" viewBox="0 0 35 44" fill="none" xmlns="http://www.w3.org/2000/svg">
<path d="M17.4267 43.3631C19.8228 43.3631 21.7833 41.3617 21.7833 38.9156H13.07C13.07 40.0952 13.529 41.2264 14.346 42.0605C15.1631 42.8945 16.2712 43.3631 17.4267 43.3631ZM30.4967 30.0206V18.9019C30.4967 12.075 26.9242 6.35992 20.6942 4.84777V3.33562C20.6942 1.48991 19.2347 0 17.4267 0C15.6186 0 14.1592 1.48991 14.1592 3.33562V4.84777C7.90735 6.35992 4.35667 12.0527 4.35667 18.9019V30.0206L0 34.4681V36.6919H34.8533V34.4681L30.4967 30.0206Z" fill="white"/>
</svg>
