<svg width="50" height="42" viewBox="0 0 50 42" fill="none" xmlns="http://www.w3.org/2000/svg">
<path d="M49.1865 0.60968H1.22548C0.956313 0.60968 0.736084 0.820058 0.736084 1.07719V4.81724C0.736084 5.07437 0.956313 5.28474 1.22548 5.28474H49.1865C49.4557 5.28474 49.6759 5.07437 49.6759 4.81724V1.07719C49.6759 0.820058 49.4557 0.60968 49.1865 0.60968ZM49.1865 37.0752H1.22548C0.956313 37.0752 0.736084 37.2856 0.736084 37.5427V41.2827C0.736084 41.5399 0.956313 41.7502 1.22548 41.7502H49.1865C49.4557 41.7502 49.6759 41.5399 49.6759 41.2827V37.5427C49.6759 37.2856 49.4557 37.0752 49.1865 37.0752ZM49.1865 18.8424H1.22548C0.956313 18.8424 0.736084 19.0528 0.736084 19.3099V23.05C0.736084 23.3071 0.956313 23.5175 1.22548 23.5175H49.1865C49.4557 23.5175 49.6759 23.3071 49.6759 23.05V19.3099C49.6759 19.0528 49.4557 18.8424 49.1865 18.8424Z" fill="white"/>
</svg>
