<svg width="42" height="42" viewBox="0 0 42 42" fill="none" xmlns="http://www.w3.org/2000/svg">
<path fill-rule="evenodd" clip-rule="evenodd" d="M5.96001 0.200001H5.80001C5.06721 0.200001 4.43681 0.200001 3.88001 0.331201C3.01805 0.537168 2.22993 0.977749 1.60299 1.60413C0.976048 2.2305 0.534756 3.01822 0.328012 3.88C0.200012 4.4368 0.200012 5.064 0.200012 5.8V13.8C0.200012 14.5328 0.200012 15.1632 0.331212 15.72C0.53718 16.582 0.977761 17.3701 1.60414 17.997C2.23052 18.624 3.01823 19.0653 3.88001 19.272C4.43681 19.4 5.06401 19.4 5.80001 19.4H13.8C14.5328 19.4 15.1632 19.4 15.72 19.2688C16.582 19.0628 17.3701 18.6223 17.997 17.9959C18.624 17.3695 19.0653 16.5818 19.272 15.72C19.4 15.1632 19.4 14.536 19.4 13.8V5.8C19.4 5.0672 19.4 4.4368 19.2688 3.88C19.0628 3.01804 18.6223 2.22992 17.9959 1.60298C17.3695 0.976036 16.5818 0.534745 15.72 0.328001C15.1632 0.200001 14.536 0.200001 13.8 0.200001H5.96001ZM4.62561 3.4448C4.76321 3.4128 4.97761 3.4 5.96001 3.4H13.64C14.6256 3.4 14.8368 3.4096 14.9744 3.4448C15.2619 3.51354 15.5247 3.66056 15.7337 3.86955C15.9426 4.07855 16.0897 4.34135 16.1584 4.6288C16.1904 4.7632 16.2 4.9744 16.2 5.96V13.64C16.2 14.6256 16.1904 14.8368 16.1552 14.9744C16.0865 15.2619 15.9395 15.5247 15.7305 15.7336C15.5215 15.9426 15.2587 16.0897 14.9712 16.1584C14.84 16.1872 14.6288 16.2 13.64 16.2H5.96001C4.97441 16.2 4.76321 16.1904 4.62561 16.1552C4.33816 16.0865 4.07536 15.9394 3.86637 15.7304C3.65737 15.5215 3.51035 15.2587 3.44161 14.9712C3.41281 14.84 3.40001 14.6288 3.40001 13.64V5.96C3.40001 4.9744 3.40961 4.7632 3.44481 4.6256C3.51355 4.33814 3.66057 4.07535 3.86957 3.86635C4.07856 3.65736 4.34136 3.51034 4.62881 3.4416L4.62561 3.4448ZM28.36 0.200001H28.2C27.4672 0.200001 26.8368 0.200001 26.28 0.331201C25.418 0.537168 24.6299 0.977749 24.003 1.60413C23.376 2.2305 22.9348 3.01822 22.728 3.88C22.6 4.4368 22.6 5.064 22.6 5.8V13.8C22.6 14.5328 22.6 15.1632 22.7312 15.72C22.9372 16.582 23.3778 17.3701 24.0041 17.997C24.6305 18.624 25.4182 19.0653 26.28 19.272C26.8368 19.4 27.464 19.4 28.2 19.4H36.2C36.9328 19.4 37.5632 19.4 38.12 19.2688C38.982 19.0628 39.7701 18.6223 40.397 17.9959C41.024 17.3695 41.4653 16.5818 41.672 15.72C41.8 15.1632 41.8 14.536 41.8 13.8V5.8C41.8 5.0672 41.8 4.4368 41.6688 3.88C41.4628 3.01804 41.0223 2.22992 40.3959 1.60298C39.7695 0.976036 38.9818 0.534745 38.12 0.328001C37.5632 0.200001 36.936 0.200001 36.2 0.200001H28.36ZM27.0256 3.4448C27.1632 3.4128 27.3776 3.4 28.36 3.4H36.04C37.0256 3.4 37.2368 3.4096 37.3744 3.4448C37.6619 3.51354 37.9247 3.66056 38.1337 3.86955C38.3426 4.07855 38.4897 4.34135 38.5584 4.6288C38.5904 4.7632 38.6 4.9744 38.6 5.96V13.64C38.6 14.6256 38.5872 14.8368 38.5552 14.9744C38.4865 15.2619 38.3395 15.5247 38.1305 15.7336C37.9215 15.9426 37.6587 16.0897 37.3712 16.1584C37.2368 16.1904 37.0256 16.2 36.04 16.2H28.36C27.3744 16.2 27.1632 16.1904 27.0256 16.1552C26.7382 16.0865 26.4754 15.9394 26.2664 15.7304C26.0574 15.5215 25.9104 15.2587 25.8416 14.9712C25.8128 14.84 25.8 14.6288 25.8 13.64V5.96C25.8 4.9744 25.8096 4.7632 25.8448 4.6256C25.9136 4.33814 26.0606 4.07535 26.2696 3.86635C26.4786 3.65736 26.7414 3.51034 27.0288 3.4416L27.0256 3.4448ZM5.80001 22.6H13.8C14.5328 22.6 15.1632 22.6 15.72 22.7312C16.582 22.9372 17.3701 23.3778 17.997 24.0041C18.624 24.6305 19.0653 25.4182 19.272 26.28C19.4 26.8368 19.4 27.464 19.4 28.2V36.2C19.4 36.9328 19.4 37.5632 19.2688 38.12C19.0628 38.982 18.6223 39.7701 17.9959 40.397C17.3695 41.024 16.5818 41.4653 15.72 41.672C15.1632 41.8 14.536 41.8 13.8 41.8H5.80001C5.06721 41.8 4.43681 41.8 3.88001 41.6688C3.01805 41.4628 2.22993 41.0223 1.60299 40.3959C0.976048 39.7695 0.534756 38.9818 0.328012 38.12C0.200012 37.5632 0.200012 36.936 0.200012 36.2V28.2C0.200012 27.4672 0.200012 26.8368 0.331212 26.28C0.53718 25.418 0.977761 24.6299 1.60414 24.003C2.23052 23.376 3.01823 22.9347 3.88001 22.728C4.43681 22.6 5.06401 22.6 5.80001 22.6ZM5.96001 25.8C4.97441 25.8 4.76321 25.8096 4.62561 25.8448C4.33816 25.9135 4.07536 26.0606 3.86637 26.2696C3.65737 26.4785 3.51035 26.7413 3.44161 27.0288C3.41281 27.16 3.40001 27.3712 3.40001 28.36V36.04C3.40001 37.0256 3.40961 37.2368 3.44481 37.3744C3.51355 37.6619 3.66057 37.9247 3.86957 38.1336C4.07856 38.3426 4.34136 38.4897 4.62881 38.5584C4.76321 38.5904 4.97441 38.6 5.96001 38.6H13.64C14.6256 38.6 14.8368 38.5872 14.9744 38.5552C15.2619 38.4865 15.5247 38.3394 15.7337 38.1304C15.9426 37.9215 16.0897 37.6587 16.1584 37.3712C16.1904 37.2368 16.2 37.0256 16.2 36.04V28.36C16.2 27.3744 16.1904 27.1632 16.1552 27.0256C16.0865 26.7381 15.9395 26.4753 15.7305 26.2664C15.5215 26.0574 15.2587 25.9103 14.9712 25.8416C14.84 25.8128 14.6288 25.8 13.64 25.8H5.96001ZM28.36 22.6H28.2C27.4672 22.6 26.8368 22.6 26.28 22.7312C25.418 22.9372 24.6299 23.3778 24.003 24.0041C23.376 24.6305 22.9348 25.4182 22.728 26.28C22.6 26.8368 22.6 27.464 22.6 28.2V36.2C22.6 36.9328 22.6 37.5632 22.7312 38.12C22.9372 38.982 23.3778 39.7701 24.0041 40.397C24.6305 41.024 25.4182 41.4653 26.28 41.672C26.8368 41.8032 27.4672 41.8032 28.2 41.8032H36.2C36.9328 41.8032 37.5632 41.8032 38.12 41.672C38.9814 41.4655 39.7688 41.0247 40.3952 40.3984C41.0215 39.772 41.4623 38.9846 41.6688 38.1232C41.8 37.5664 41.8 36.936 41.8 36.2032V28.2C41.8 27.4672 41.8 26.8368 41.6688 26.28C41.4628 25.418 41.0223 24.6299 40.3959 24.003C39.7695 23.376 38.9818 22.9347 38.12 22.728C37.5632 22.6 36.936 22.6 36.2 22.6H28.36ZM27.0256 25.8448C27.1632 25.8128 27.3776 25.8 28.36 25.8H36.04C37.0256 25.8 37.2368 25.8096 37.3744 25.8448C37.6619 25.9135 37.9247 26.0606 38.1337 26.2696C38.3426 26.4785 38.4897 26.7413 38.5584 27.0288C38.5904 27.1632 38.6 27.3744 38.6 28.36V36.04C38.6 37.0256 38.5872 37.2368 38.5552 37.3744C38.4865 37.6619 38.3395 37.9247 38.1305 38.1336C37.9215 38.3426 37.6587 38.4897 37.3712 38.5584C37.2368 38.5904 37.0256 38.6 36.04 38.6H28.36C27.3744 38.6 27.1632 38.5872 27.0256 38.5552C26.7382 38.4865 26.4754 38.3394 26.2664 38.1304C26.0574 37.9215 25.9104 37.6587 25.8416 37.3712C25.8128 37.24 25.8 37.0288 25.8 36.04V28.36C25.8 27.3744 25.8096 27.1632 25.8448 27.0256C25.9136 26.7381 26.0606 26.4753 26.2696 26.2664C26.4786 26.0574 26.7414 25.9103 27.0288 25.8416L27.0256 25.8448Z" fill="white"/>
</svg>
