<svg width="50" height="50" viewBox="0 0 50 50" fill="none" xmlns="http://www.w3.org/2000/svg">
<path d="M42.1875 26.1875V23.7969L45.1875 21.1719C45.7405 20.6844 46.1034 20.0172 46.2121 19.2881C46.3207 18.559 46.1681 17.815 45.7813 17.1875L42.0938 10.9375C41.8198 10.4629 41.4258 10.0687 40.9513 9.79447C40.4769 9.52022 39.9387 9.37556 39.3907 9.37499C39.051 9.37239 38.7133 9.42517 38.3907 9.53124L34.5938 10.8125C33.9382 10.3769 33.2544 9.98539 32.5469 9.64062L31.75 5.70312C31.6071 4.98375 31.2158 4.33756 30.6445 3.87765C30.0732 3.41775 29.3583 3.17344 28.625 3.18749H21.3125C20.5792 3.17344 19.8644 3.41775 19.2931 3.87765C18.7218 4.33756 18.3304 4.98375 18.1875 5.70312L17.3907 9.64062C16.678 9.98531 15.989 10.3768 15.3282 10.8125L11.6094 9.46874C11.2833 9.38378 10.9456 9.35212 10.6094 9.37499C10.0614 9.37556 9.52317 9.52022 9.04872 9.79447C8.57427 10.0687 8.18028 10.4629 7.90628 10.9375L4.21878 17.1875C3.85407 17.814 3.71855 18.5479 3.83542 19.2634C3.95229 19.9789 4.31428 20.6314 4.8594 21.1094L7.81253 23.8125V26.2031L4.8594 28.8281C4.29889 29.3094 3.92699 29.9736 3.80971 30.703C3.69244 31.4324 3.83737 32.1798 4.21878 32.8125L7.90628 39.0625C8.18028 39.5371 8.57427 39.9313 9.04872 40.2055C9.52317 40.4798 10.0614 40.6244 10.6094 40.625C10.949 40.6276 11.2868 40.5748 11.6094 40.4687L15.4063 39.1875C16.0618 39.6231 16.7456 40.0146 17.4532 40.3594L18.25 44.2969C18.3929 45.0162 18.7843 45.6624 19.3556 46.1223C19.9269 46.5822 20.6417 46.8265 21.375 46.8125H28.75C29.4833 46.8265 30.1982 46.5822 30.7695 46.1223C31.3408 45.6624 31.7321 45.0162 31.875 44.2969L32.6719 40.3594C33.3845 40.0147 34.0735 39.6232 34.7344 39.1875L38.5157 40.4687C38.8383 40.5748 39.176 40.6276 39.5157 40.625C40.0637 40.6244 40.6019 40.4798 41.0763 40.2055C41.5508 39.9313 41.9448 39.5371 42.2188 39.0625L45.7813 32.8125C46.146 32.1859 46.2815 31.4521 46.1646 30.7366C46.0478 30.0211 45.6858 29.3685 45.1407 28.8906L42.1875 26.1875ZM39.3907 37.5L34.0313 35.6875C32.7767 36.7502 31.3428 37.5808 29.7969 38.1406L28.6875 43.75H21.3125L20.2032 38.2031C18.6694 37.6275 17.2433 36.7982 15.9844 35.75L10.6094 37.5L6.9219 31.25L11.1719 27.5C10.883 25.8826 10.883 24.2268 11.1719 22.6094L6.9219 18.75L10.6094 12.5L15.9688 14.3125C17.2234 13.2498 18.6572 12.4191 20.2032 11.8594L21.3125 6.24999H28.6875L29.7969 11.7969C31.3306 12.3725 32.7567 13.2018 34.0157 14.25L39.3907 12.5L43.0782 18.75L38.8282 22.5C39.1171 24.1174 39.1171 25.7732 38.8282 27.3906L43.0782 31.25L39.3907 37.5Z" fill="white"/>
<path d="M25 34.375C23.1458 34.375 21.3332 33.8252 19.7915 32.795C18.2498 31.7649 17.0482 30.3007 16.3386 28.5877C15.6291 26.8746 15.4434 24.9896 15.8051 23.171C16.1669 21.3525 17.0598 19.682 18.3709 18.3709C19.682 17.0598 21.3525 16.1669 23.171 15.8051C24.9896 15.4434 26.8746 15.6291 28.5877 16.3386C30.3007 17.0482 31.7649 18.2498 32.795 19.7915C33.8252 21.3332 34.375 23.1458 34.375 25C34.3875 26.2346 34.1536 27.4594 33.6869 28.6024C33.2202 29.7455 32.5301 30.784 31.6571 31.6571C30.784 32.5301 29.7455 33.2202 28.6024 33.6869C27.4594 34.1536 26.2346 34.3875 25 34.375V34.375ZM25 18.75C24.174 18.7308 23.3526 18.8793 22.5857 19.1866C21.8187 19.4938 21.122 19.9535 20.5377 20.5377C19.9535 21.122 19.4938 21.8187 19.1866 22.5857C18.8793 23.3526 18.7308 24.174 18.75 25C18.7308 25.826 18.8793 26.6474 19.1866 27.4144C19.4938 28.1813 19.9535 28.878 20.5377 29.4623C21.122 30.0465 21.8187 30.5062 22.5857 30.8135C23.3526 31.1207 24.174 31.2692 25 31.25C25.826 31.2692 26.6474 31.1207 27.4144 30.8135C28.1813 30.5062 28.878 30.0465 29.4623 29.4623C30.0465 28.878 30.5062 28.1813 30.8135 27.4144C31.1207 26.6474 31.2692 25.826 31.25 25C31.2692 24.174 31.1207 23.3526 30.8135 22.5857C30.5062 21.8187 30.0465 21.122 29.4623 20.5377C28.878 19.9535 28.1813 19.4938 27.4144 19.1866C26.6474 18.8793 25.826 18.7308 25 18.75Z" fill="white"/>
</svg>
