<svg width="41" height="41" viewBox="0 0 41 41" fill="none" xmlns="http://www.w3.org/2000/svg">
<path d="M37.75 8.0625C37.75 5.9905 36.9269 4.00336 35.4618 2.53823C33.9966 1.0731 32.0095 0.25 29.9375 0.25H8.0625C5.9905 0.25 4.00336 1.0731 2.53823 2.53823C1.0731 4.00336 0.25 5.9905 0.25 8.0625V29.9375C0.25 32.0095 1.0731 33.9966 2.53823 35.4618C4.00336 36.9269 5.9905 37.75 8.0625 37.75H13.5531C12.7573 36.786 12.0688 35.7381 11.5 34.625H8.0625C6.8193 34.625 5.62701 34.1311 4.74794 33.2521C3.86886 32.373 3.375 31.1807 3.375 29.9375V12.75H16.9281C19.725 10.7812 23.1344 9.625 26.8125 9.625C30.9688 9.625 34.7812 11.1 37.75 13.5531V8.0625ZM26.8125 9.625H3.375V8.0625C3.375 6.8193 3.86886 5.62701 4.74794 4.74794C5.62701 3.86886 6.8193 3.375 8.0625 3.375H29.9375C31.1807 3.375 32.373 3.86886 33.2521 4.74794C34.1311 5.62701 34.625 6.8193 34.625 8.0625V9.625H26.8125ZM24.8594 20.5625C24.8594 20.0445 25.0651 19.5477 25.4314 19.1814C25.7977 18.8151 26.2945 18.6094 26.8125 18.6094C27.3305 18.6094 27.8273 18.8151 28.1936 19.1814C28.5599 19.5477 28.7656 20.0445 28.7656 20.5625C28.7656 21.0805 28.5599 21.5773 28.1936 21.9436C27.8273 22.3099 27.3305 22.5156 26.8125 22.5156C26.2945 22.5156 25.7977 22.3099 25.4314 21.9436C25.0651 21.5773 24.8594 21.0805 24.8594 20.5625ZM28.375 33.0625C28.375 33.4769 28.2104 33.8743 27.9174 34.1674C27.6243 34.4604 27.2269 34.625 26.8125 34.625C26.3981 34.625 26.0007 34.4604 25.7076 34.1674C25.4146 33.8743 25.25 33.4769 25.25 33.0625V26.8125C25.25 26.3981 25.4146 26.0007 25.7076 25.7076C26.0007 25.4146 26.3981 25.25 26.8125 25.25C27.2269 25.25 27.6243 25.4146 27.9174 25.7076C28.2104 26.0007 28.375 26.3981 28.375 26.8125V33.0625ZM12.75 26.8125C12.75 24.9658 13.1137 23.1372 13.8204 21.431C14.5272 19.7249 15.563 18.1746 16.8688 16.8688C18.1746 15.563 19.7249 14.5272 21.431 13.8204C23.1372 13.1137 24.9658 12.75 26.8125 12.75C28.6592 12.75 30.4878 13.1137 32.194 13.8204C33.9001 14.5272 35.4504 15.563 36.7562 16.8688C38.062 18.1746 39.0979 19.7249 39.8046 21.431C40.5113 23.1372 40.875 24.9658 40.875 26.8125C40.875 30.5421 39.3934 34.119 36.7562 36.7562C34.119 39.3934 30.5421 40.875 26.8125 40.875C23.0829 40.875 19.506 39.3934 16.8688 36.7562C14.2316 34.119 12.75 30.5421 12.75 26.8125ZM15.875 26.8125C15.875 29.7133 17.0273 32.4953 19.0785 34.5465C21.1297 36.5977 23.9117 37.75 26.8125 37.75C29.7133 37.75 32.4953 36.5977 34.5465 34.5465C36.5977 32.4953 37.75 29.7133 37.75 26.8125C37.75 23.9117 36.5977 21.1297 34.5465 19.0785C32.4953 17.0273 29.7133 15.875 26.8125 15.875C23.9117 15.875 21.1297 17.0273 19.0785 19.0785C17.0273 21.1297 15.875 23.9117 15.875 26.8125Z" fill="white"/>
</svg>
